:SAMPLES-PER-SECOND 30
:FULLY-SPECIFIED
:DEGREES
214
root  -22.2099 38.7571 -30.6123 -174.48 11.7518 177.309
RightUpLeg  -34.9436 -9.94563 1.16271
RightLeg  59.962 15.4379 -1.61845
RightFoot  8.39636 -0.0927741 0.245408
RightToes  -5.82073e-011 -3.18055e-015 -2.98177e-016
Spine  26.2183 -0.512075 2.50322
Spine1  -4.16339 0.186644 -1.08391
HEad  1.71758 -13.8725 8.83654
LeftShoulder1  -3.88251e-019 9.70628e-020 -3.87848e-018
LeftArm  -7.01382 15.1159 -63.7948
LeftForeArm  -36.9041 -67.2259 25.79
LeftHand  -2.11108 -10.0225 16.4925
RightShoulder  3.5531 7.758 18.3527
RightArm  12.0518 -22.9122 43.0813
RightForeArm  -81.1342 67.5081 -99.0629
RightHand  -5.71305 10.8887 -39.0067
LeftUpLeg  -18.8288 5.62519 -5.13781
LeftLeg  29.9421 -4.89446 6.43058
LeftFoot  -9.02231 0.0269238 -1.50825
LeftToes  1.2018e-011 -3.94675e-011 -1.33631e-011
215
root  -21.8298 38.7935 -31.936 -176.044 13.4854 177.133
RightUpLeg  -35.2883 -11.1067 0.823598
RightLeg  60.9223 13.7217 -5.15483
RightFoot  6.62032 0.339059 -2.14101
RightToes  -5.82073e-011 -3.18055e-015 -2.98177e-016
Spine  23.8798 -0.275838 0.525339
Spine1  -3.83789 -0.0383574 -0.638809
HEad  4.65123 -15.5348 9.37855
LeftShoulder1  -3.88251e-019 9.70628e-020 -3.87848e-018
LeftArm  -7.86978 13.2678 -64.1697
LeftForeArm  -33.6687 -64.8556 22.8933
LeftHand  -2.0644 -9.97825 16.1865
RightShoulder  4.07589 8.249 20.8081
RightArm  17.7527 -26.7727 37.9116
RightForeArm  -83.205 67.3231 -102.015
RightHand  -5.04161 10.4845 -35.5524
LeftUpLeg  -13.3017 5.81491 -4.81516
LeftLeg  27.4719 -3.22272 6.87767
LeftFoot  -11.0342 0.0234189 -2.86932
LeftToes  1.2018e-011 -3.94675e-011 -1.33631e-011
216
root  -21.4196 38.7805 -33.2491 -177.134 15.4886 176.734
RightUpLeg  -36.0788 -13.1842 0.896384
RightLeg  58.8929 11.2034 -9.66657
RightFoot  2.4769 0.53007 -3.98999
RightToes  -5.82073e-011 -3.18055e-015 -2.98177e-016
Spine  21.387 -0.219037 -1.30161
Spine1  -3.46802 -0.366471 -0.159498
HEad  6.81198 -16.8514 9.62437
LeftShoulder1  -3.88251e-019 9.70628e-020 -3.87848e-018
LeftArm  -9.05568 12.1273 -64.3874
LeftForeArm  -30.8908 -62.3229 20.3534
LeftHand  -2.075 -9.98389 16.2601
RightShoulder  4.68426 8.69304 23.7104
RightArm  23.7805 -30.7648 31.7915
RightForeArm  -81.0036 67.2477 -101.929
RightHand  -4.39793 10.4262 -31.3906
LeftUpLeg  -8.28325 5.90056 -4.86716
LeftLeg  24.8318 -1.27026 7.26078
LeftFoot  -11.9855 0.00342308 -3.63195
LeftToes  1.2018e-011 -3.94675e-011 -1.33631e-011
217
root  -20.9523 38.6709 -34.5548 -178.093 17.4979 175.981
RightUpLeg  -36.7407 -15.675 1.19044
RightLeg  54.764 8.72639 -12.351
RightFoot  -2.36633 0.553645 -5.81847
RightToes  -5.82073e-011 -3.18055e-015 -2.98177e-016
Spine  18.6115 -0.410836 -3.1106
Spine1  -2.57787 -0.783312 -0.0869568
HEad  8.0605 -17.4402 9.5998
LeftShoulder1  -3.88251e-019 9.70628e-020 -3.87848e-018
LeftArm  -10.4122 12.095 -64.3647
LeftForeArm  -28.7936 -60.2103 18.5748
LeftHand  -2.13356 -10.0617 16.6217
RightShoulder  5.21875 8.98663 26.2957
RightArm  29.6067 -34.9049 25.8084
RightForeArm  -74.0222 67.4381 -96.5826
RightHand  -3.90382 10.3305 -28.1816
LeftUpLeg  -3.70407 6.3653 -5.24272
LeftLeg  22.6289 0.0984581 7.30811
LeftFoot  -12.9648 -0.0316921 -4.71632
LeftToes  1.2018e-011 -3.94675e-011 -1.33631e-011
218
root  -20.4201 38.5329 -35.8908 -178.824 19.6538 175.647
RightUpLeg  -36.5227 -17.9721 2.49545
RightLeg  47.8439 6.75302 -12.1739
RightFoot  -6.16376 0.441581 -6.84442
RightToes  -5.82073e-011 -3.18055e-015 -2.98177e-016
Spine  15.6562 -0.944635 -4.05758
Spine1  -1.24858 -1.33807 -0.0774108
HEad  8.89547 -17.0536 8.88187
LeftShoulder1  -3.88251e-019 9.70628e-020 -3.87848e-018
LeftArm  -12.0426 14.039 -63.8934
LeftForeArm  -27.7553 -59.0607 17.7022
LeftHand  -2.12113 -9.8519 16.7528
RightShoulder  5.67877 9.21006 28.4852
RightArm  35.0939 -38.5853 20.6606
RightForeArm  -61.7154 67.3299 -83.9434
RightHand  -3.42769 9.53712 -26.1385
LeftUpLeg  0.862775 6.99614 -5.07016
LeftLeg  20.3937 0.975958 6.86938
LeftFoot  -14.0451 -0.0944237 -6.89443
LeftToes  1.2018e-011 -3.94675e-011 -1.33631e-011
219
root  -19.8016 38.3934 -37.2305 -179.286 21.7337 176.184
RightUpLeg  -34.7015 -20.5096 5.25625
RightLeg  37.6408 6.22364 -9.2243
RightFoot  -7.13401 0.36303 -6.50917
RightToes  -5.82073e-011 -3.18055e-015 -2.98177e-016
Spine  13.159 -1.75595 -4.45328
Spine1  -0.0821763 -2.31479 1.22424
HEad  9.72713 -15.7521 7.1558
LeftShoulder1  -3.88251e-019 9.70628e-020 -3.87848e-018
LeftArm  -14.1448 18.5386 -63.1962
LeftForeArm  -27.7594 -58.8452 17.5281
LeftHand  -2.06262 -9.51767 16.6689
RightShoulder  5.99156 9.37668 29.8964
RightArm  39.4121 -41.8572 17.0346
RightForeArm  -44.4717 65.2266 -65.5356
RightHand  -2.91045 8.31378 -24.2224
LeftUpLeg  5.46045 6.73969 -4.05
LeftLeg  18.1805 2.65074 6.37337
LeftFoot  -14.2385 -0.125419 -8.78102
LeftToes  1.2018e-011 -3.94675e-011 -1.33631e-011
220
root  -19.048 38.1525 -38.5246 -179.734 23.2072 177.151
RightUpLeg  -31.5909 -22.9087 8.27126
RightLeg  27.6003 7.57329 -5.67727
RightFoot  -5.18302 0.463508 -6.39703
RightToes  -5.82073e-011 -3.18055e-015 -2.98177e-016
Spine  11.3742 -2.60527 -5.58312
Spine1  0.956401 -3.79856 4.51114
HEad  10.3953 -14.2199 5.1769
LeftShoulder1  -3.88251e-019 9.70628e-020 -3.87848e-018
LeftArm  -16.5147 24.6888 -63.1617
LeftForeArm  -27.3581 -58.4228 17.2316
LeftHand  -2.10783 -9.60628 16.9194
RightShoulder  6.10427 9.41791 30.4347
RightArm  41.0178 -44.9695 15.1146
RightForeArm  -25.4126 59.539 -46.8619
RightHand  -2.34252 7.07462 -21.4802
LeftUpLeg  9.50018 7.244 -2.31942
LeftLeg  17.2417 3.23577 6.39047
LeftFoot  -14.114 -0.129752 -10.0732
LeftToes  1.2018e-011 -3.94675e-011 -1.33631e-011
221
root  -18.1735 37.7985 -39.7406 179.867 24.1867 178.343
RightUpLeg  -29.0034 -21.3149 9.61162
RightLeg  24.1187 7.20979 -5.2682
RightFoot  -3.58165 0.611313 -7.20949
RightToes  -5.82073e-011 -3.18055e-015 -2.98177e-016
Spine  9.97095 -3.34004 -6.82539
Spine1  2.4659 -5.29921 8.37609
HEad  10.6803 -13.5371 4.14497
LeftShoulder1  -3.88251e-019 9.70628e-020 -3.87848e-018
LeftArm  -18.3225 30.7132 -64.2023
LeftForeArm  -25.6729 -56.3531 15.8501
LeftHand  -2.2011 -9.76696 17.4735
RightShoulder  6.25109 9.43415 31.2106
RightArm  38.1871 -47.1818 14.6694
RightForeArm  -7.73704 49.4034 -31.307
RightHand  -1.79945 5.71897 -18.5815
LeftUpLeg  12.02 8.92404 0.45002
LeftLeg  19.3015 1.38128 6.86081
LeftFoot  -14.4966 -0.209921 -13.4314
LeftToes  1.2018e-011 -3.94675e-011 -1.33631e-011
222
root  -17.2171 37.3936 -40.9265 179.731 25.1619 179.714
RightUpLeg  -28.0265 -15.0262 9.44898
RightLeg  28.5511 3.65232 -8.32812
RightFoot  -5.51371 0.517027 -7.44379
RightToes  -5.82073e-011 -3.18055e-015 -2.98177e-016
Spine  8.53145 -3.93451 -7.09591
Spine1  4.13165 -6.28652 10.7519
HEad  10.7061 -14.2923 4.14605
LeftShoulder1  -3.88251e-019 9.70628e-020 -3.87848e-018
LeftArm  -18.6506 35.911 -65.6747
LeftForeArm  -24.8747 -52.2083 13.3898
LeftHand  -1.99183 -8.81986 16.9013
RightShoulder  6.65836 9.62081 33.0171
RightArm  29.3155 -47.6995 15.3462
RightForeArm  5.26076 34.6915 -19.2852
RightHand  -1.47777 3.99211 -18.0445
LeftUpLeg  11.7617 9.71561 3.68713
LeftLeg  26.2419 -0.715105 7.92265
LeftFoot  -13.2757 -0.0318919 -18.8405
LeftToes  1.2018e-011 -3.94675e-011 -1.33631e-011
223
root  -16.2214 37.0612 -42.1507 179.866 26.0015 -178.952
RightUpLeg  -27.1437 -11.2027 10.0064
RightLeg  34.0008 2.05069 -11.1617
RightFoot  -9.77806 0.226725 -6.54328
RightToes  -5.82073e-011 -3.18055e-015 -2.98177e-016
Spine  7.11174 -4.36252 -6.89922
Spine1  4.97797 -6.87627 11.7528
HEad  10.7895 -16.3204 4.26991
LeftShoulder1  -3.88251e-019 9.70628e-020 -3.87848e-018
LeftArm  -17.7475 40.8181 -67.3535
LeftForeArm  -27.186 -46.4957 10.5426
LeftHand  -1.28284 -6.15398 13.4279
RightShoulder  7.11697 9.91011 34.8122
RightArm  13.5523 -47.3057 15.6072
RightForeArm  11.2388 18.8425 -11.1624
RightHand  -1.16791 0.955881 -21.0475
LeftUpLeg  8.17491 9.77889 6.40711
LeftLeg  37.2889 -1.68591 10.9101
LeftFoot  -5.8129 1.21221 -20.0311
LeftToes  1.2018e-011 -3.94675e-011 -1.33631e-011
224
root  -15.3471 36.9392 -43.3088 -179.604 26.1575 -177.375
RightUpLeg  -25.1999 -12.3213 11.455
RightLeg  35.8453 2.98125 -11.1973
RightFoot  -13.6476 0.0180471 -5.68663
RightToes  -5.82073e-011 -3.18055e-015 -2.98177e-016
Spine  6.30108 -4.80274 -6.10718
Spine1  5.14813 -7.50896 13.1171
HEad  11.0792 -19.3355 4.25431
LeftShoulder1  -3.88251e-019 9.70628e-020 -3.87848e-018
LeftArm  -17.0419 45.55 -70.0543
LeftForeArm  -30.9527 -39.4618 7.82996
LeftHand  -0.460384 -2.18424 7.46058
RightShoulder  7.22691 9.99388 35.1937
RightArm  -1.61001 -48.0326 13.3606
RightForeArm  5.48333 8.08617 -8.2388
RightHand  -0.281541 -4.17496 -25.7523
LeftUpLeg  1.66785 8.39899 8.00558
LeftLeg  48.9406 -1.64969 15.9921
LeftFoot  7.50508 2.29597 -12.8645
LeftToes  1.2018e-011 -3.94675e-011 -1.33631e-011
225
root  -14.6634 36.9481 -44.3534 -179.072 26.2036 -175.995
RightUpLeg  -22.8792 -15.4047 12.5559
RightLeg  35.892 5.1413 -9.50689
RightFoot  -16.1097 -0.0932386 -5.65613
RightToes  -5.82073e-011 -3.18055e-015 -2.98177e-016
Spine  5.93418 -5.1486 -4.47323
Spine1  5.46966 -7.79841 14.439
HEad  11.2787 -23.143 4.83216
LeftShoulder1  -3.88251e-019 9.70628e-020 -3.87848e-018
LeftArm  -18.608 49.6274 -73.769
LeftForeArm  -31.2047 -31.1923 4.92058
LeftHand  -0.0633784 1.35516 2.29974
RightShoulder  7.02141 9.84054 34.4638
RightArm  -1.00793 -50.7878 8.0141
RightForeArm  -16.8203 5.09382 -8.4556
RightHand  0.96839 -9.2231 -29.36
LeftUpLeg  -5.49207 6.66411 8.22534
LeftLeg  58.073 -2.87412 20.2646
LeftFoot  16.9206 1.0082 -3.34127
LeftToes  1.2018e-011 -3.94675e-011 -1.33631e-011
226
root  -14.0233 37.1047 -45.4457 -179.039 27.9132 -175.694
RightUpLeg  -19.9554 -15.8117 12.2212
RightLeg  35.4346 6.74617 -8.09781
RightFoot  -17.4869 -0.158488 -5.7527
RightToes  -5.82073e-011 -3.18055e-015 -2.98177e-016
Spine  5.06369 -4.8185 -2.68874
Spine1  6.11428 -6.99816 13.4396
HEad  11.1514 -27.0404 6.11363
LeftShoulder1  -3.88251e-019 9.70628e-020 -3.87848e-018
LeftArm  -26.414 53.666 -76.7126
LeftForeArm  -22.892 -22.9144 0.61217
LeftHand  -0.0405067 2.59277 1.53032
RightShoulder  6.83072 9.66179 33.8563
RightArm  4.80408 -54.0515 0.216263
RightForeArm  -30.8318 7.92078 -7.75734
RightHand  1.51538 -11.7355 -27.6038
LeftUpLeg  -10.8206 6.65916 6.92298
LeftLeg  63.5853 -4.5199 22.1654
LeftFoot  15.9946 -0.371911 1.66294
LeftToes  1.2018e-011 -3.94675e-011 -1.33631e-011
